<?xml version="1.0" encoding="UTF-8" standalone="no"?>
<!DOCTYPE svg PUBLIC "-//W3C//DTD SVG 1.1//EN" "http://www.w3.org/Graphics/SVG/1.1/DTD/svg11.dtd">
<svg version="1.1" xmlns="http://www.w3.org/2000/svg" xmlns:xlink="http://www.w3.org/1999/xlink" preserveAspectRatio="xMidYMid meet" viewBox="0 0 110 18" width="110" height="18"><defs><path d="M2.58 6.33C2.92 5.41 3.41 4.61 4.04 3.93C4.68 3.25 5.45 2.7 6.36 2.31C7.27 1.91 8.86 1.7 10.02 1.7C10.78 1.7 12.03 1.74 12.93 1.97C13.83 2.2 14.17 2.32 14.77 2.57C14.19 3.12 13.74 3.61 13.43 4.05C13.12 4.49 12.84 5.05 12.57 5.74C12.19 5.59 11.77 5.47 11.32 5.36C10.87 5.25 10.36 5.19 9.79 5.19C8.59 5.19 7.7 5.57 7.11 6.31C6.52 7.06 6.22 8.04 6.22 9.26C6.22 10.55 6.5 11.55 7.05 12.25C7.61 12.96 8.52 13.43 9.9 13.43C10.39 13.43 10.96 13.36 11.32 13.32C11.68 13.28 12.33 13.18 12.77 12.98C12.94 13.46 13.16 13.92 13.43 14.35C13.7 14.78 14.12 15.26 14.69 15.8C14.14 16.12 13.22 16.44 12.18 16.61C11.13 16.78 10.4 16.81 9.55 16.81C8.24 16.81 7.11 16.61 6.17 16.22C5.22 15.83 4.45 15.3 3.84 14.63C3.23 13.95 2.78 13.16 2.5 12.24C2.22 11.32 2.06 10.73 2.08 9.26C2.1 7.79 2.25 7.24 2.58 6.33ZM27.27 12.32C26.94 13.26 26.47 14.06 25.85 14.72C25.23 15.38 24.49 15.9 23.63 16.26C22.76 16.62 21.8 16.81 20.72 16.81C19.67 16.81 18.71 16.62 17.85 16.26C16.99 15.9 16.25 15.38 15.63 14.72C15.01 14.06 14.53 13.26 14.18 12.32C13.84 11.39 13.66 10.36 13.66 9.23C13.66 8.1 13.84 7.08 14.2 6.15C14.55 5.22 15.04 4.43 15.67 3.78C16.3 3.12 17.04 2.61 17.9 2.25C18.77 1.89 19.71 1.71 20.72 1.71C21.76 1.71 22.71 1.89 23.57 2.25C24.44 2.61 25.18 3.12 25.79 3.78C26.41 4.43 26.89 5.22 27.24 6.15C27.58 7.08 27.76 8.1 27.76 9.23C27.76 10.36 27.59 11.39 27.27 12.32ZM22.86 6.27C22.36 5.55 21.65 5.19 20.72 5.19C19.8 5.19 19.08 5.55 18.57 6.27C18.06 6.99 17.81 7.97 17.81 9.23C17.81 10.48 18.06 11.48 18.57 12.21C19.08 12.95 19.8 13.32 20.72 13.32C21.65 13.32 22.36 12.95 22.86 12.21C23.36 11.48 23.61 10.48 23.61 9.23C23.61 7.97 23.36 6.99 22.86 6.27ZM36.51 6.04C36.18 5.49 35.6 5.22 34.78 5.22C34.53 5.22 34.26 5.24 33.99 5.26C33.72 5.29 33.46 5.32 33.2 5.36C33.2 6.1 33.2 9.78 33.2 16.42L29.14 16.42C29.14 8.12 29.14 3.5 29.14 2.58C29.48 2.49 29.89 2.39 30.35 2.29C30.82 2.19 31.31 2.1 31.82 2.02C32.34 1.94 32.87 1.87 33.42 1.83C33.96 1.78 34.5 1.76 35.03 1.76C36.06 1.76 36.9 1.89 37.55 2.16C38.19 2.42 38.73 2.73 39.14 3.1C39.73 2.68 40.39 2.35 41.15 2.11C41.9 1.88 42.6 1.76 43.23 1.76C44.38 1.76 45.32 1.92 46.05 2.24C46.79 2.55 47.38 3 47.81 3.59C48.25 4.17 48.55 4.86 48.71 5.66C48.87 6.46 48.96 7.35 48.96 8.33C48.96 8.87 48.96 11.57 48.96 16.42L44.9 16.42C44.9 11.86 44.9 9.33 44.9 8.82C44.9 7.51 44.73 6.58 44.39 6.04C44.05 5.49 43.48 5.22 42.66 5.22C42.44 5.22 42.14 5.28 41.75 5.39C41.36 5.49 41.03 5.63 40.78 5.79C40.91 6.21 40.99 6.65 41.02 7.12C41.06 7.58 41.08 8.07 41.08 8.6C41.08 9.12 41.08 11.73 41.08 16.42L37.02 16.42L37.02 8.82C36.91 7.33 36.74 6.4 36.51 6.04ZM57.87 6.04C57.53 5.49 56.95 5.22 56.14 5.22C55.88 5.22 55.62 5.24 55.35 5.26C55.07 5.29 54.81 5.32 54.56 5.36C54.56 6.1 54.56 9.78 54.56 16.42L50.49 16.42C50.49 8.12 50.49 3.5 50.49 2.58C50.84 2.49 51.24 2.39 51.71 2.29C52.17 2.19 52.66 2.1 53.18 2.02C53.7 1.94 54.23 1.87 54.77 1.83C55.32 1.78 55.86 1.76 56.38 1.76C57.42 1.76 58.26 1.89 58.9 2.16C59.55 2.42 60.08 2.73 60.5 3.1C61.08 2.68 61.75 2.35 62.5 2.11C63.26 1.88 63.95 1.76 64.59 1.76C65.73 1.76 66.67 1.92 67.41 2.24C68.14 2.55 68.73 3 69.17 3.59C69.6 4.17 69.9 4.86 70.07 5.66C70.23 6.46 70.31 7.35 70.31 8.33C70.31 8.87 70.31 11.57 70.31 16.42L66.25 16.42C66.25 11.86 66.25 9.33 66.25 8.82C66.25 7.51 66.08 6.58 65.75 6.04C65.41 5.49 64.83 5.22 64.01 5.22C63.8 5.22 63.49 5.28 63.1 5.39C62.71 5.49 62.39 5.63 62.13 5.79C62.26 6.21 62.34 6.65 62.38 7.12C62.42 7.58 62.43 8.07 62.43 8.6C62.43 9.12 62.43 11.73 62.43 16.42L58.37 16.42L58.37 8.82C58.26 7.33 58.09 6.4 57.87 6.04ZM77.98 16.75C76.77 16.75 75.75 16.59 74.94 16.26C74.13 15.93 73.49 15.48 73.02 14.88C72.55 14.29 72.21 13.59 72.01 12.77C71.81 11.95 71.71 11.06 71.71 10.07C71.71 9.54 71.71 6.88 71.71 2.09L75.77 2.09C75.77 6.58 75.77 9.08 75.77 9.58C75.77 10.89 75.95 11.84 76.29 12.42C76.64 13 77.28 13.29 78.23 13.29C78.52 13.29 78.83 13.28 79.15 13.25C79.48 13.22 79.77 13.19 80.03 13.15C80.03 12.42 80.03 8.73 80.03 2.09L84.09 2.09L84.09 16.52C80.82 16.68 78.78 16.75 77.98 16.75ZM93.12 5.72C92.62 5.6 92.11 5.57 91.54 5.57C91.29 5.57 90.98 5.6 90.63 5.64C90.27 5.69 90.01 5.74 89.82 5.79C89.82 6.51 89.82 10.08 89.82 16.52L85.76 16.52C85.76 7.89 85.76 3.09 85.76 2.13C86.66 1.94 89.05 1.69 91.65 1.79C91.87 1.8 92.13 1.8 92.44 1.83C92.75 1.86 93.06 1.89 93.37 1.94C93.68 1.98 93.99 2.04 94.3 2.1C94.6 2.16 95.69 2.4 96.14 2.64C95.43 3.3 94.94 3.86 94.67 4.32C94.39 4.79 94.13 5.33 93.89 5.95C93.55 5.84 93.63 5.84 93.12 5.72ZM95.42 6.03C95.81 5.07 96.32 4.28 96.96 3.64C97.59 3 98.33 2.52 99.15 2.2C99.98 1.87 100.83 1.71 101.7 1.71C103.74 1.71 105.35 2.33 106.53 3.57C107.71 4.82 108.3 6.65 108.3 9.07C108.3 9.3 108.29 9.56 108.27 9.84C108.25 10.12 108.23 10.37 108.22 10.59C107.3 10.59 99.92 10.59 99 10.59C99.09 11.43 99.48 12.09 100.18 12.58C100.87 13.07 101.79 13.32 102.96 13.32C103.7 13.32 103.92 13.35 104.63 13.21C105.35 13.07 105.47 12.97 105.92 12.77C106.19 13.51 106.39 14.04 106.53 14.34C106.68 14.69 106.94 15.17 107.29 15.79C107.07 15.9 106.84 16.04 106.06 16.33C105.29 16.62 104.64 16.72 103.9 16.77C103.17 16.82 102.92 16.81 102.41 16.81C101.12 16.81 100 16.62 99.04 16.23C98.09 15.85 97.3 15.33 96.67 14.67C96.05 14 95.58 13.22 95.28 12.31C94.98 11.4 94.83 10.42 94.83 9.37C94.83 8.09 95.03 6.98 95.42 6.03ZM104.2 6.8C104.1 6.48 103.94 6.18 103.73 5.93C103.52 5.68 103.26 5.47 102.94 5.3C102.62 5.14 102.23 5.06 101.76 5.06C101.3 5.06 100.91 5.14 100.58 5.29C100.26 5.44 99.98 5.65 99.77 5.9C99.55 6.16 99.38 6.45 99.26 6.79C99.14 7.13 99.06 7.47 99 7.81C99.36 7.81 101.15 7.81 104.37 7.81C104.32 7.36 104.26 7.02 104.2 6.8Z" id="b11L1YzM5m"></path></defs><g><g><g><use xlink:href="#b11L1YzM5m" opacity="1" fill="#000000" fill-opacity="1"></use><g><use xlink:href="#b11L1YzM5m" opacity="1" fill-opacity="0" stroke="#000000" stroke-width="1" stroke-opacity="0"></use></g></g></g></g></svg>