<svg width="107px" height="16px" viewBox="0 0 107 16" version="1.1" xmlns="http://www.w3.org/2000/svg" xmlns:xlink="http://www.w3.org/1999/xlink">
    
    <title>commure copy 3@2x</title>
    <desc>Created with Sketch.</desc>
    <defs></defs>
    <g id="Page-1" stroke="none" stroke-width="1" fill="none" fill-rule="evenodd">
        <g id="commure-engineering" transform="translate(-446.000000, -31.000000)" fill="#FFFFFF">
            <g id="Header">
                <g id="nav" transform="translate(445.000000, 24.402344)">
                    <path d="M1.07984267,14.853661 C1.10016509,13.3836729 1.24793459,12.8410854 1.58412348,11.9233806 C1.92031237,11.0056758 2.40641604,10.2061034 3.04244908,9.52463943 C3.67848211,8.84317546 4.45079635,8.30255549 5.35941497,7.9027633 C6.26803359,7.50297111 7.85736171,7.29701161 9.02039354,7.29701161 C9.78363318,7.29701161 11.029916,7.33387874 11.9287499,7.56475392 C12.8275838,7.79562911 13.1703941,7.91481657 13.7700824,8.16922978 C13.188049,8.71268063 12.7418625,9.20426297 12.4315229,9.64397679 C12.1211833,10.0836906 11.8354541,10.6481398 11.5743353,11.3373245 C11.1927154,11.1919455 10.7747571,11.0647408 10.3204478,10.9557066 C9.86613852,10.8466724 9.35731972,10.7921561 8.79397618,10.7921561 C7.5945996,10.7921561 6.69962369,11.1646841 6.10902158,11.9097514 C5.51841948,12.6548186 5.22312286,13.636112 5.22312286,14.853661 C5.22312286,16.1438994 5.50024738,17.1433649 6.05450474,17.8520874 C6.6087621,18.56081 7.51995683,19.0306967 8.90105713,19.0306967 C9.39171119,19.0306967 9.96153544,18.9561648 10.3204478,18.9151659 C10.6793602,18.874167 11.3295685,18.7785239 11.7734495,18.5770234 C11.940709,19.0592493 12.1600668,19.5151092 12.4315229,19.944603 C12.7029789,20.3740968 13.1240195,20.8596501 13.6946444,21.4012629 C13.1434533,21.7143754 12.2209575,22.0408519 11.1767437,22.2103072 C10.1325299,22.3797625 9.40275188,22.404244 8.54865038,22.404244 C7.24023957,22.404244 6.11356938,22.2088939 5.16860601,21.8181879 C4.22364265,21.4274819 3.44678538,20.895948 2.83801091,20.2235702 C2.22923643,19.5511924 1.78401999,18.756163 1.50234822,17.8384582 C1.22067644,16.9207534 1.05952025,16.323649 1.07984267,14.853661 Z M26.7572765,14.8264026 C26.7572765,15.9530897 26.5937276,16.9843563 26.2666249,17.9202335 C25.9395222,18.8561107 25.4670476,19.6556831 24.8491869,20.3189747 C24.2313262,20.9822662 23.4908132,21.4956281 22.6276255,21.8590755 C21.7644378,22.222523 20.7967735,22.404244 19.7246035,22.404244 C18.6706059,22.404244 17.7120277,22.222523 16.84884,21.8590755 C15.9856523,21.4956281 15.2451392,20.9822662 14.6272785,20.3189747 C14.0094179,19.6556831 13.5278572,18.8561107 13.1825822,17.9202335 C12.8373071,16.9843563 12.6646721,15.9530897 12.6646721,14.8264026 C12.6646721,13.6997155 12.8418501,12.6729918 13.1962114,11.7462008 C13.5505726,10.8194099 14.0412193,10.0289235 14.6681662,9.37471811 C15.295113,8.7205127 16.0401691,8.2116939 16.9033568,7.84824646 C17.7665445,7.48479901 18.7069507,7.30307801 19.7246035,7.30307801 C20.7604287,7.30307801 21.709921,7.48479901 22.5731086,7.84824646 C23.4362963,8.2116939 24.1768094,8.7205127 24.7946701,9.37471811 C25.4125307,10.0289235 25.8940914,10.8194099 26.2393664,11.7462008 C26.5846415,12.6729918 26.7572765,13.6997155 26.7572765,14.8264026 Z M22.6139963,14.8264026 C22.6139963,13.5725089 22.3641299,12.5866725 21.8643897,11.8688637 C21.3646494,11.151055 20.6513945,10.7921561 19.7246035,10.7921561 C18.7978125,10.7921561 18.0800146,11.151055 17.5711882,11.8688637 C17.0623617,12.5866725 16.8079523,13.5725089 16.8079523,14.8264026 C16.8079523,16.0802963 17.0623617,17.0752187 17.5711882,17.8111998 C18.0800146,18.5471809 18.7978125,18.9151659 19.7246035,18.9151659 C20.6513945,18.9151659 21.3646494,18.5471809 21.8643897,17.8111998 C22.3641299,17.0752187 22.6139963,16.0802963 22.6139963,14.8264026 Z M36.0173519,14.4175262 C36.0173519,13.1091154 35.84926,12.1823383 35.5130711,11.6371672 C35.1768822,11.091996 34.5999181,10.8194145 33.7821613,10.8194145 C33.5277481,10.8194145 33.2642526,10.8330436 32.9916671,10.8603021 C32.7190815,10.8875607 32.455586,10.9193619 32.2011728,10.9557066 L32.2011728,22.022626 L28.1396679,22.022626 L28.1396679,8.17534752 C28.484943,8.08448566 28.8892722,7.98908214 29.3526677,7.88913409 C29.8160632,7.78918604 30.3067099,7.69832554 30.8246225,7.61654987 C31.3425351,7.53477419 31.874069,7.47117184 32.4192402,7.42574091 C32.9644114,7.38030998 33.5004883,7.35759486 34.0274871,7.35759486 C35.0633123,7.35759486 35.9037719,7.48934258 36.5488912,7.75284198 C37.1940104,8.01634138 37.7255443,8.3298101 38.1435089,8.69325755 C38.7250248,8.27529298 39.3928495,7.94819519 40.1470029,7.71195435 C40.9011564,7.4757135 41.5962392,7.35759486 42.2322722,7.35759486 C43.3771317,7.35759486 44.3175378,7.51660073 45.0535189,7.83461725 C45.7895,8.15263376 46.3755502,8.60239323 46.8116872,9.18390915 C47.2478241,9.76542507 47.5476637,10.4559649 47.7112151,11.2555492 C47.8747664,12.0551336 47.9565409,12.9455665 47.9565409,13.9268746 L47.9565409,22.022626 L43.895036,22.022626 L43.895036,14.4175262 C43.895036,13.1091154 43.726944,12.1823383 43.3907552,11.6371672 C43.0545663,11.091996 42.4776021,10.8194145 41.6598453,10.8194145 C41.4417769,10.8194145 41.1373942,10.8739308 40.7466882,10.982965 C40.3559822,11.0919993 40.0334274,11.22829 39.7790142,11.3918414 C39.9062208,11.8098059 39.9879953,12.2504793 40.02434,12.7138748 C40.0606847,13.1772703 40.0788568,13.6724601 40.0788568,14.1994589 L40.0788568,22.022626 L36.0173519,22.022626 L36.0173519,14.4175262 Z M57.3723788,14.4175262 C57.3723788,13.1091154 57.2042868,12.1823383 56.868098,11.6371672 C56.5319091,11.091996 55.9549449,10.8194145 55.1371881,10.8194145 C54.8827749,10.8194145 54.6192795,10.8330436 54.3466939,10.8603021 C54.0741083,10.8875607 53.8106129,10.9193619 53.5561996,10.9557066 L53.5561996,22.022626 L49.4946947,22.022626 L49.4946947,8.17534752 C49.8399698,8.08448566 50.244299,7.98908214 50.7076945,7.88913409 C51.17109,7.78918604 51.6617367,7.69832554 52.1796493,7.61654987 C52.6975619,7.53477419 53.2290958,7.47117184 53.774267,7.42574091 C54.3194382,7.38030998 54.8555151,7.35759486 55.3825139,7.35759486 C56.4183392,7.35759486 57.2587988,7.48934258 57.903918,7.75284198 C58.5490372,8.01634138 59.0805711,8.3298101 59.4985357,8.69325755 C60.0800516,8.27529298 60.7478763,7.94819519 61.5020297,7.71195435 C62.2561832,7.4757135 62.951266,7.35759486 63.587299,7.35759486 C64.7321585,7.35759486 65.6725647,7.51660073 66.4085458,7.83461725 C67.1445268,8.15263376 67.7305771,8.60239323 68.166714,9.18390915 C68.6028509,9.76542507 68.9026906,10.4559649 69.0662419,11.2555492 C69.2297933,12.0551336 69.3115677,12.9455665 69.3115677,13.9268746 L69.3115677,22.022626 L65.2500628,22.022626 L65.2500628,14.4175262 C65.2500628,13.1091154 65.0819709,12.1823383 64.745782,11.6371672 C64.4095931,11.091996 63.8326289,10.8194145 63.0148722,10.8194145 C62.7968037,10.8194145 62.492421,10.8739308 62.101715,10.982965 C61.711009,11.0919993 61.3884543,11.22829 61.134041,11.3918414 C61.2612476,11.8098059 61.3430221,12.2504793 61.3793668,12.7138748 C61.4157116,13.1772703 61.4338837,13.6724601 61.4338837,14.1994589 L61.4338837,22.022626 L57.3723788,22.022626 L57.3723788,14.4175262 Z M83.0887532,22.1192778 C79.7387537,22.4107619 78.1822431,22.3497271 76.9828666,22.3497271 C75.7653176,22.3497271 74.7522231,22.1861782 73.9435525,21.8590755 C73.1348819,21.5319728 72.4943154,21.0731273 72.0218337,20.4825252 C71.549352,19.8919231 71.2131682,19.1877542 71.0132721,18.3699975 C70.813376,17.5522407 70.7134294,16.6527218 70.7134294,15.6714137 L70.7134294,7.68469592 L74.7749344,7.68469592 L74.7749344,15.1807621 C74.7749344,16.4891729 74.9475693,17.4341221 75.2928444,18.015638 C75.6381195,18.5971539 76.283229,18.8879075 77.2281924,18.8879075 C77.5189503,18.8879075 77.827876,18.8742784 78.1549787,18.8470199 C78.4820814,18.8197613 78.772835,18.7879601 79.0272482,18.7516154 L79.0272482,7.68469592 L83.0887532,7.68469592 L83.0887532,22.1192778 Z M92.8867927,11.5511252 C92.545298,11.4343385 92.6282503,11.4400208 92.1229731,11.3211474 C91.617696,11.202274 91.1053282,11.1712261 90.5419846,11.1712261 C90.2875714,11.1712261 89.9831887,11.1939412 89.6288275,11.2393722 C89.2744662,11.2848031 89.0064278,11.3347764 88.824704,11.3892935 L88.824704,22.1219873 L84.7631991,22.1219873 L84.7631991,7.72558356 C85.6565893,7.5347746 88.0459319,7.28294127 90.6510183,7.38485328 C90.8690132,7.39338132 91.1325822,7.39848235 91.4415126,7.42574091 C91.7504429,7.45299947 92.0593686,7.48934367 92.3682989,7.5347746 C92.6772293,7.58020553 92.986155,7.63472183 93.2950853,7.69832513 C93.6040156,7.76192844 94.6939276,7.99625022 95.1350516,8.2387496 C94.4321686,8.8973617 93.9428284,9.45825787 93.6670308,9.92143809 C93.3912332,10.3846183 93.1311538,10.9278473 92.8867927,11.5511252 Z M93.8324656,14.9626947 C93.8324656,13.6906286 94.0278157,12.5775875 94.4185217,11.6235379 C94.8092277,10.6694884 95.3225895,9.87445903 95.9586225,9.23842599 C96.5946556,8.60239296 97.3260826,8.12083232 98.1529255,7.79372961 C98.9797685,7.46662691 99.8293142,7.30307801 100.701588,7.30307801 C102.736894,7.30307801 104.345125,7.92547243 105.526329,9.17027994 C106.707533,10.4150874 107.298126,12.2459265 107.298126,14.662852 C107.298126,14.8990929 107.28904,15.1580453 107.270868,15.4397171 C107.252695,15.7213888 107.234523,15.9712552 107.216351,16.1893237 L98.0030042,16.1893237 C98.0938661,17.0252528 98.4845662,17.6885345 99.1751164,18.1791885 C99.8656665,18.6698426 100.792444,18.9151659 101.955475,18.9151659 C102.700543,18.9151659 102.915963,18.943813 103.633772,18.8075202 C104.35158,18.6712274 104.466312,18.5650916 104.920622,18.3651955 C105.189588,19.1111232 105.39149,19.635691 105.526329,19.9388988 C105.682246,20.2895061 105.936035,20.7725201 106.287694,21.3879408 C106.069625,21.496975 105.835638,21.6380115 105.064839,21.9286096 C104.29404,22.2192076 103.639143,22.3160011 102.904562,22.3673388 C102.169982,22.4186765 101.919133,22.404244 101.410307,22.404244 C100.120069,22.404244 98.9979414,22.2134369 98.0438919,21.8318171 C97.0898423,21.4501973 96.299356,20.9277494 95.6724091,20.2644578 C95.0454623,19.6011662 94.5820737,18.8152229 94.2822296,17.9066043 C93.9823854,16.9979857 93.8324656,16.0166923 93.8324656,14.9626947 Z M103.372913,13.4089646 C103.354741,13.0636895 103.295682,12.7275057 103.195734,12.400403 C103.095786,12.0733003 102.941323,11.7825467 102.73234,11.5281335 C102.523358,11.2737203 102.259863,11.0647411 101.941846,10.9011898 C101.62383,10.7376384 101.228587,10.655864 100.756105,10.655864 C100.301796,10.655864 99.9110954,10.7330954 99.5839927,10.8875605 C99.25689,11.0420257 98.9843085,11.2464618 98.76624,11.500875 C98.5481716,11.7552883 98.3800797,12.0505849 98.2619592,12.3867738 C98.1438388,12.7229627 98.0575213,13.0636895 98.0030042,13.4089646 L103.372913,13.4089646 Z" id="commure-copy-3"></path>
                </g>
            </g>
        </g>
    </g>
</svg>