<?xml version="1.0" encoding="UTF-8" standalone="no"?>
<!DOCTYPE svg PUBLIC "-//W3C//DTD SVG 1.1//EN" "http://www.w3.org/Graphics/SVG/1.1/DTD/svg11.dtd">
<svg version="1.1" xmlns="http://www.w3.org/2000/svg" xmlns:xlink="http://www.w3.org/1999/xlink" preserveAspectRatio="xMidYMid meet" viewBox="0 0 640 200" width="640" height="200"><defs><path d="M262.23 46.11L269.13 46.11L290.5 90.49L281.57 90.49L275.87 78.42L255.33 78.42L249.78 90.49L240.78 90.49L262.23 46.11ZM256.83 73.24L274.22 73.24L265.68 53.93L256.83 73.24Z" id="g2DsIX8yC"></path><path d="M318.83 52.3L318.83 90.49L310.44 90.49L310.44 52.3L292.66 52.3L292.66 46.11L336.53 46.11L336.53 52.3L318.83 52.3Z" id="f1YdPriFm"></path><path d="M370.79 52.3L370.79 90.49L362.39 90.49L362.39 52.3L344.62 52.3L344.62 46.11L388.49 46.11L388.49 52.3L370.79 52.3Z" id="acD7LOiWo"></path><path d="M437.9 90.49L401.38 90.49L401.38 46.11L437.22 46.11L437.22 52.3L409.78 52.3L409.78 64.92L433.55 64.92L433.55 70.74L409.78 70.74L409.78 84.3L437.9 84.3L437.9 90.49Z" id="c4YPZ9px3I"></path><path d="M460.91 90.49L452.51 90.49L452.51 46.11L459.11 46.11L489.55 78.11L489.55 46.17L498.03 46.17L498.03 90.49L491.05 90.49L460.91 59.24L460.91 90.49Z" id="ch85UDqYX"></path><path d="M537.01 52.3L537.01 90.49L528.61 90.49L528.61 52.3L510.84 52.3L510.84 46.11L554.71 46.11L554.71 52.3L537.01 52.3Z" id="c1oZOn5j5C"></path><path d="M567.6 46.17L576 46.17L576 90.49L567.6 90.49L567.6 46.17Z" id="b7dcWjJqPf"></path><path d="M610.49 52.05C603.96 52.05 600.44 54.36 600.44 58.24C600.44 62.49 604.79 63.43 613.64 65.3C624.13 67.55 631.18 69.86 631.18 78.05C631.18 87.3 622.26 90.92 611.69 90.92C603.59 90.92 595.71 88.8 589.64 84.92C590.03 84.32 593.15 79.52 593.54 78.92C596.09 81.11 603.59 84.61 611.98 84.61C618.36 84.61 622.11 82.61 622.11 78.86C622.11 74.42 616.78 73.17 607.56 71.17C597.06 68.86 591.74 66.24 591.74 59.3C591.74 50.55 600.14 45.8 610.93 45.8C618.28 45.8 624.43 47.99 629.01 50.8C628.75 51.18 627.48 53.1 625.18 56.55C620.03 53.55 615.13 52.05 610.49 52.05Z" id="a9eZOTi6Z"></path><path d="M305.12 123.59C304.92 123.7 303.3 124.57 303.1 124.68C301.91 122.55 299.55 121.84 297.5 121.84C293 121.84 290.59 125.23 290.59 128.4C290.59 131.91 293.57 135.06 297.58 135.06C299.69 135.06 302.19 134.19 303.35 132.1C303.57 132.2 305.27 132.98 305.49 133.07C304.21 135.59 300.6 136.98 297.47 136.98C291.92 136.98 288 132.57 288 128.31C288 124.23 291.53 119.92 297.61 119.92C301.19 119.92 303.87 121.44 305.12 123.59Z" id="ffe8o3ZSY"></path><path d="M329.72 119.89C335.38 119.89 339.19 124.23 339.19 128.45C339.19 132.93 335.12 136.96 329.66 136.96C324 136.96 320.16 132.74 320.16 128.43C320.16 123.95 324.26 119.89 329.72 119.89ZM336.6 128.43C336.6 124.99 333.79 121.84 329.69 121.84C325.4 121.84 322.75 125.16 322.75 128.43C322.75 131.86 325.51 135.04 329.69 135.04C333.98 135.04 336.6 131.67 336.6 128.43Z" id="c2Hb3DllWl"></path><path d="M358.27 136.84L355.71 136.84L355.71 120.01L357.7 120.01L370.22 133.12L370.22 120.04L372.77 120.04L372.77 136.84L370.61 136.84L358.27 123.99L358.27 136.84Z" id="c2kGGwNF2I"></path><path d="M396.98 121.79C393.85 121.79 392.43 122.83 392.43 124.54C392.43 126.34 394.11 126.82 397.74 127.5C401.95 128.28 404.57 129.28 404.57 132.32C404.57 135.56 401.38 137.01 397.23 137.01C394.13 137.01 391.29 136.18 389.01 134.64C389.14 134.46 390.11 133.02 390.24 132.84C391.46 133.9 394.22 135.09 397.29 135.09C400.16 135.09 401.84 134.21 401.84 132.53C401.84 130.63 399.76 130.06 396.01 129.3C391.91 128.47 389.78 127.55 389.78 124.87C389.78 121.65 392.85 119.89 397.03 119.89C399.74 119.89 401.95 120.65 403.66 121.81C403.58 121.93 403.18 122.51 402.47 123.54C400.42 122.38 398.59 121.79 396.98 121.79Z" id="aFSsHBYaQ"></path><path d="M435.25 120.01L437.81 120.01C437.81 125.12 437.81 127.95 437.81 128.52C437.81 133.07 435.43 136.96 429.23 136.96C422.8 136.96 420.61 132.84 420.61 128.52C420.61 127.95 420.61 125.12 420.61 120.01L423.17 120.01C423.17 125.12 423.17 127.95 423.17 128.52C423.17 131.84 424.59 135.04 429.2 135.04C433.89 135.04 435.25 131.75 435.25 128.52C435.25 127.39 435.25 124.55 435.25 120.01Z" id="cTk4QDsE"></path><path d="M455.28 120.01L457.83 120.01L457.83 134.95L469.1 134.95L469.1 136.84L455.28 136.84L455.28 120.01Z" id="aS7p94xxt"></path><path d="M489.49 121.91L489.49 136.84L486.93 136.84L486.93 121.91L479.96 121.91L479.96 120.01L496.45 120.01L496.45 121.91L489.49 121.91Z" id="a2Uep1Ojcc"></path><path d="M512.32 120.04L514.88 120.04L514.88 136.84L512.32 136.84L512.32 120.04Z" id="e5SY0FVMI"></path><path d="M535.22 136.84L532.66 136.84L532.66 120.01L534.65 120.01L547.16 133.12L547.16 120.04L549.72 120.04L549.72 136.84L547.56 136.84L535.22 123.99L535.22 136.84Z" id="bqLRuDJ6u"></path><path d="M575.66 136.96C570.31 136.96 566.24 132.72 566.24 128.38C566.24 123.85 570.26 119.89 575.66 119.89C579.55 119.89 582.06 121.39 583.36 123.57C583.17 123.68 581.6 124.59 581.4 124.7C580.21 122.76 578.07 121.81 575.6 121.81C571.48 121.81 568.83 125.01 568.83 128.43C568.83 132.03 571.88 135.04 575.86 135.04C578.02 135.04 580.01 134.19 581.8 132.39C581.8 132.23 581.8 131.46 581.8 130.06L577.45 130.06L577.45 128.45L583.96 128.45L583.96 136.84L581.8 136.84L581.8 134.57C579.26 136.16 577.21 136.96 575.66 136.96Z" id="daoolPrMa"></path><path d="M166.41 157.99C171.04 154.76 175.41 151.08 179.47 146.95C180.74 145.66 190.83 135.39 192.1 134.11C189.39 132.53 186.25 131.61 182.89 131.61C172.75 131.61 164.54 139.82 164.54 149.96C164.54 152.84 165.22 155.56 166.41 157.99Z" id="ecUkXahNR"></path><path d="M166.41 157.99C171.04 154.76 175.41 151.08 179.47 146.95C180.74 145.66 190.83 135.39 192.1 134.11C189.39 132.53 186.25 131.61 182.89 131.61C172.75 131.61 164.54 139.82 164.54 149.96C164.54 152.84 165.22 155.56 166.41 157.99Z" id="a2amEjNU2C"></path><path d="M176.04 166.97C178.16 167.82 180.46 168.3 182.89 168.3C193.02 168.3 201.23 160.09 201.23 149.96C201.23 145.18 199.39 140.84 196.4 137.57C195.77 138.59 192.62 143.67 186.96 152.82C182.42 159.35 178.78 164.06 176.04 166.97Z" id="djVkyPD95"></path><path d="M176.04 166.97C178.16 167.82 180.46 168.3 182.89 168.3C193.02 168.3 201.23 160.09 201.23 149.96C201.23 145.18 199.39 140.84 196.4 137.57C195.77 138.59 192.62 143.67 186.96 152.82C182.42 159.35 178.78 164.06 176.04 166.97Z" id="b2b9AFTZHj"></path><path d="M128.68 177.95C118.72 179.45 108.63 179.49 98.84 178.13C93.95 177.46 89.14 176.41 84.47 175.01C79.8 173.64 75.27 171.91 70.98 169.8C70.77 169.69 69.72 169.13 67.82 168.14L64.75 166.36L61.91 164.56C61.92 164.56 61.92 164.56 61.92 164.56C62.33 164.84 61.47 164.28 61.59 164.35C61.6 164.36 61.67 164.4 61.78 164.47L61.91 164.56L61.82 164.49L61.42 164.19L60.63 163.59L59.04 162.39C57.13 160.96 56.07 160.16 55.85 160C54.98 159.22 54.31 158.48 53.52 157.74C53.36 157.6 52.6 156.87 51.21 155.56C50.46 154.67 50.04 154.18 49.95 154.08C50.94 152.86 51.93 151.63 52.92 150.41C54.76 148.16 56.55 145.88 58.34 143.6C61.96 139.06 65.45 134.44 68.99 129.84C72.44 125.19 75.97 120.59 79.34 115.89C82.75 111.22 86.15 106.53 89.46 101.79C92.82 97.08 96.1 92.32 99.36 87.54C99.51 87.32 99.67 87.09 99.82 86.87C101.89 90.32 104.03 93.73 106.13 97.16C107.38 99.19 108.69 101.17 109.97 103.18C111.27 105.18 112.52 107.2 113.85 109.17C114.25 109.77 117.42 114.52 117.82 115.12C119.12 117.11 120.52 119.05 121.87 121.01C122.58 122.05 123.32 123.08 124.04 124.11C126.89 124.34 129.58 124.01 131.92 123.48C124.54 127.83 114.62 131.44 102.85 132.05C97.16 132.34 91.36 131.93 85.65 129.77C96.13 139.02 117.47 140.75 132.33 135.58C132.33 135.58 132.33 135.58 132.33 135.58C133.25 135.38 140.89 132.15 144.13 129.89C151.27 124.89 157.96 118.71 162.27 111.06C168.23 100.68 170.98 88.62 170.62 76.63C170.2 64.66 166.81 52.56 160.2 42.09C159.38 40.78 158.47 39.52 157.6 38.24C156.67 37 155.69 35.79 154.73 34.57C154.42 34.22 151.91 31.44 151.6 31.09C150.41 29.94 149.17 28.73 147.98 27.65C147.87 27.57 147.37 27.14 146.45 26.37L145.69 25.73L145.31 25.41L145.12 25.25L144.63 24.87C142.43 23.27 141.21 22.37 140.96 22.19C139.7 21.35 138.42 20.54 137.14 19.72C135.85 18.91 134.5 18.2 133.18 17.45C122.45 11.62 110.25 8.44 98.03 7.94C85.78 7.42 73.5 9.75 62.18 14.35C50.84 18.96 40.52 26.09 32.06 35.07C30.97 36.16 29.99 37.36 28.98 38.53C27.96 39.68 27.03 40.92 26.1 42.16C25.15 43.38 24.3 44.67 23.44 45.96C23.02 46.62 22.59 47.21 22.16 47.93C22.04 48.14 21.03 49.86 20.9 50.07C20.5 50.77 20.04 51.55 19.7 52.18C19.63 52.3 19.33 52.89 18.79 53.95L17.73 56.04L16.84 58.11L15.08 62.27L14.22 64.35C13.8 65.64 13.57 66.35 13.52 66.49C9.55 77.84 7.84 89.83 8.01 101.72C8.18 113.63 10.55 125.48 14.87 136.62C18.94 147.03 24.99 156.75 32.65 165.01C33.17 165.57 33.68 166.14 34.21 166.69C34.39 166.87 35.32 167.8 37 169.47L37.41 169.87C39.63 171.7 40.86 172.71 41.11 172.92C42.34 173.9 43.61 174.96 44.81 175.84C45.14 176.06 47.82 177.79 48.15 178C53.16 181.48 58.48 183.96 63.93 186.1C69.39 188.21 74.98 189.79 80.62 190.92C86.27 192 91.97 192.61 97.65 192.8C103.33 193 109.01 192.69 114.6 191.99C120.19 191.3 125.72 190.18 131.09 188.57C141.83 185.41 151.99 180.49 160.88 174.01C169.77 167.53 177.28 159.36 182.89 150.3C175.38 157.93 166.87 164.16 157.66 168.78C148.44 173.38 138.63 176.39 128.68 177.95ZM43.21 144.04C43.1 144.26 42.98 144.49 42.86 144.71C39.78 139.82 37.3 134.53 35.42 129.02C32.38 120.25 31.05 110.89 31.09 101.59C31.14 92.27 32.87 83.01 35.91 74.32C35.95 74.21 36.13 73.67 36.45 72.68L37.14 71.1L38.51 67.94L39.18 66.35L39.95 64.9C40.5 63.84 40.81 63.25 40.87 63.14C41.16 62.61 41.4 62.26 41.67 61.81C42.17 60.97 42.67 60.11 43.34 59.18C43.96 58.26 44.57 57.34 45.26 56.47C46.58 54.7 47.99 52.98 49.51 51.36C55.53 44.81 63.06 39.63 71.29 36.03C79.52 32.4 88.53 30.59 97.5 30.57C106.49 30.54 115.41 32.57 123.61 36.34C124.62 36.85 125.66 37.31 126.65 37.86C126.85 37.97 127.84 38.53 129.61 39.54L132.49 41.39C132.54 41.43 132.57 41.45 132.58 41.45C132.05 41.05 132.49 41.38 132.4 41.31C132.41 41.32 132.48 41.37 132.6 41.46L133 41.76L133.79 42.35C134.75 43.07 135.28 43.46 135.39 43.54C136.18 44.22 136.88 44.82 137.66 45.44C137.82 45.59 138.61 46.35 140.04 47.71C141.37 49.18 142.11 50 142.26 50.16C142.94 51.03 143.66 51.87 144.32 52.76C149.55 59.92 153.04 68.64 154.18 77.82C155.43 86.99 154.21 96.56 150.65 105.16C150.06 106.57 149.36 107.87 148.59 109.09C148.59 109.08 148.6 109.07 148.61 109.07C148.61 109.07 148.59 109.09 148.58 109.09C147.94 110.1 147.24 111.05 146.5 111.94C146.5 111.94 146.5 111.94 146.5 111.93C146.5 111.93 146.47 111.97 146.42 112.03C145.12 113.57 143.68 114.92 142.18 116.11C141.29 116.89 140.25 117.74 139.1 118.62C138.87 118.13 137.01 114.23 136.78 113.74C136.61 113.38 136.44 113.01 136.27 112.65C135.22 110.5 134.23 108.33 133.15 106.21C132.83 105.57 130.27 100.46 129.95 99.82C128.9 97.68 127.76 95.59 126.67 93.47C125.56 91.37 124.49 89.24 123.35 87.16C121.05 82.99 118.85 78.77 116.47 74.66C114.11 70.53 111.8 66.37 109.35 62.3C108.77 61.34 105.89 56.58 100.71 48L91.78 61.81C88.95 66.18 87.38 68.61 87.07 69.1C85.49 71.51 83.98 73.98 82.43 76.42C79.35 81.31 76.28 86.22 73.3 91.17C70.26 96.1 67.31 101.08 64.38 106.06C61.41 111.03 58.59 116.1 55.7 121.11C52.89 126.18 50.03 131.23 47.31 136.35C45.93 138.9 44.55 141.45 43.21 144.04Z" id="b9m1gA4SY"></path></defs><g><g><g><use xlink:href="#g2DsIX8yC" opacity="1" fill="#00364a" fill-opacity="1"></use><g><use xlink:href="#g2DsIX8yC" opacity="1" fill-opacity="0" stroke="#00364a" stroke-width="1" stroke-opacity="1"></use></g></g><g><use xlink:href="#f1YdPriFm" opacity="1" fill="#00364a" fill-opacity="1"></use><g><use xlink:href="#f1YdPriFm" opacity="1" fill-opacity="0" stroke="#00364a" stroke-width="1" stroke-opacity="1"></use></g></g><g><use xlink:href="#acD7LOiWo" opacity="1" fill="#00364a" fill-opacity="1"></use><g><use xlink:href="#acD7LOiWo" opacity="1" fill-opacity="0" stroke="#00364a" stroke-width="1" stroke-opacity="1"></use></g></g><g><use xlink:href="#c4YPZ9px3I" opacity="1" fill="#00364a" fill-opacity="1"></use><g><use xlink:href="#c4YPZ9px3I" opacity="1" fill-opacity="0" stroke="#00364a" stroke-width="1" stroke-opacity="1"></use></g></g><g><use xlink:href="#ch85UDqYX" opacity="1" fill="#00364a" fill-opacity="1"></use><g><use xlink:href="#ch85UDqYX" opacity="1" fill-opacity="0" stroke="#00364a" stroke-width="1" stroke-opacity="1"></use></g></g><g><use xlink:href="#c1oZOn5j5C" opacity="1" fill="#00364a" fill-opacity="1"></use><g><use xlink:href="#c1oZOn5j5C" opacity="1" fill-opacity="0" stroke="#00364a" stroke-width="1" stroke-opacity="1"></use></g></g><g><use xlink:href="#b7dcWjJqPf" opacity="1" fill="#00364a" fill-opacity="1"></use><g><use xlink:href="#b7dcWjJqPf" opacity="1" fill-opacity="0" stroke="#00364a" stroke-width="1" stroke-opacity="1"></use></g></g><g><use xlink:href="#a9eZOTi6Z" opacity="1" fill="#00364a" fill-opacity="1"></use><g><use xlink:href="#a9eZOTi6Z" opacity="1" fill-opacity="0" stroke="#00364a" stroke-width="1" stroke-opacity="1"></use></g></g><g><use xlink:href="#ffe8o3ZSY" opacity="1" fill="#00364a" fill-opacity="1"></use><g><use xlink:href="#ffe8o3ZSY" opacity="1" fill-opacity="0" stroke="#00364a" stroke-width="1" stroke-opacity="1"></use></g></g><g><use xlink:href="#c2Hb3DllWl" opacity="1" fill="#00364a" fill-opacity="1"></use><g><use xlink:href="#c2Hb3DllWl" opacity="1" fill-opacity="0" stroke="#00364a" stroke-width="1" stroke-opacity="1"></use></g></g><g><use xlink:href="#c2kGGwNF2I" opacity="1" fill="#00364a" fill-opacity="1"></use><g><use xlink:href="#c2kGGwNF2I" opacity="1" fill-opacity="0" stroke="#00364a" stroke-width="1" stroke-opacity="1"></use></g></g><g><use xlink:href="#aFSsHBYaQ" opacity="1" fill="#00364a" fill-opacity="1"></use><g><use xlink:href="#aFSsHBYaQ" opacity="1" fill-opacity="0" stroke="#00364a" stroke-width="1" stroke-opacity="1"></use></g></g><g><use xlink:href="#cTk4QDsE" opacity="1" fill="#00364a" fill-opacity="1"></use><g><use xlink:href="#cTk4QDsE" opacity="1" fill-opacity="0" stroke="#00364a" stroke-width="1" stroke-opacity="1"></use></g></g><g><use xlink:href="#aS7p94xxt" opacity="1" fill="#00364a" fill-opacity="1"></use><g><use xlink:href="#aS7p94xxt" opacity="1" fill-opacity="0" stroke="#00364a" stroke-width="1" stroke-opacity="1"></use></g></g><g><use xlink:href="#a2Uep1Ojcc" opacity="1" fill="#00364a" fill-opacity="1"></use><g><use xlink:href="#a2Uep1Ojcc" opacity="1" fill-opacity="0" stroke="#00364a" stroke-width="1" stroke-opacity="1"></use></g></g><g><use xlink:href="#e5SY0FVMI" opacity="1" fill="#00364a" fill-opacity="1"></use><g><use xlink:href="#e5SY0FVMI" opacity="1" fill-opacity="0" stroke="#00364a" stroke-width="1" stroke-opacity="1"></use></g></g><g><use xlink:href="#bqLRuDJ6u" opacity="1" fill="#00364a" fill-opacity="1"></use><g><use xlink:href="#bqLRuDJ6u" opacity="1" fill-opacity="0" stroke="#00364a" stroke-width="1" stroke-opacity="1"></use></g></g><g><use xlink:href="#daoolPrMa" opacity="1" fill="#00364a" fill-opacity="1"></use><g><use xlink:href="#daoolPrMa" opacity="1" fill-opacity="0" stroke="#00364a" stroke-width="1" stroke-opacity="1"></use></g></g><g><use xlink:href="#ecUkXahNR" opacity="1" fill="#94c940" fill-opacity="1"></use><g><use xlink:href="#ecUkXahNR" opacity="1" fill-opacity="0" stroke="#000000" stroke-width="1" stroke-opacity="0"></use></g></g><g><use xlink:href="#a2amEjNU2C" opacity="1" fill="#000000" fill-opacity="0"></use><g><use xlink:href="#a2amEjNU2C" opacity="1" fill-opacity="0" stroke="#ffffff" stroke-width="1" stroke-opacity="1"></use></g></g><g><use xlink:href="#djVkyPD95" opacity="1" fill="#94c940" fill-opacity="1"></use><g><use xlink:href="#djVkyPD95" opacity="1" fill-opacity="0" stroke="#000000" stroke-width="1" stroke-opacity="0"></use></g></g><g><use xlink:href="#b2b9AFTZHj" opacity="1" fill="#000000" fill-opacity="0"></use><g><use xlink:href="#b2b9AFTZHj" opacity="1" fill-opacity="0" stroke="#ffffff" stroke-width="1" stroke-opacity="1"></use></g></g><g><use xlink:href="#b9m1gA4SY" opacity="1" fill="#00364a" fill-opacity="1"></use><g><use xlink:href="#b9m1gA4SY" opacity="1" fill-opacity="0" stroke="#00364a" stroke-width="1" stroke-opacity="1"></use></g></g></g></g></svg>