<?xml version="1.0" encoding="UTF-8" standalone="no"?>
<!DOCTYPE svg PUBLIC "-//W3C//DTD SVG 1.1//EN" "http://www.w3.org/Graphics/SVG/1.1/DTD/svg11.dtd">
<svg version="1.1" xmlns="http://www.w3.org/2000/svg" xmlns:xlink="http://www.w3.org/1999/xlink" preserveAspectRatio="xMidYMid meet" viewBox="0 0 640 200" width="640" height="200"><defs><path d="M262.65 46.42L269.55 46.42L290.92 90.79L281.99 90.79L276.3 78.72L255.75 78.72L250.2 90.79L241.2 90.79L262.65 46.42ZM257.25 73.54L274.64 73.54L266.1 54.23L257.25 73.54Z" id="c1s6YdAAaj"></path><path d="M319.26 52.6L319.26 90.79L310.86 90.79L310.86 52.6L293.09 52.6L293.09 46.42L336.95 46.42L336.95 52.6L319.26 52.6Z" id="b9hQWdrx1"></path><path d="M371.21 52.6L371.21 90.79L362.81 90.79L362.81 52.6L345.04 52.6L345.04 46.42L388.91 46.42L388.91 52.6L371.21 52.6Z" id="g9rvDmybJ"></path><path d="M438.32 90.79L401.8 90.79L401.8 46.42L437.64 46.42L437.64 52.6L410.2 52.6L410.2 65.23L433.97 65.23L433.97 71.04L410.2 71.04L410.2 84.6L438.32 84.6L438.32 90.79Z" id="aIpu1SR09"></path><path d="M461.33 90.79L452.93 90.79L452.93 46.42L459.53 46.42L489.97 78.41L489.97 46.48L498.45 46.48L498.45 90.79L491.48 90.79L461.33 59.54L461.33 90.79Z" id="dJI42LxBS"></path><path d="M537.43 52.6L537.43 90.79L529.03 90.79L529.03 52.6L511.26 52.6L511.26 46.42L555.13 46.42L555.13 52.6L537.43 52.6Z" id="fWYhnPuuq"></path><path d="M568.02 46.48L576.42 46.48L576.42 90.79L568.02 90.79L568.02 46.48Z" id="a7tIQi8YSN"></path><path d="M610.91 52.35C604.38 52.35 600.86 54.66 600.86 58.54C600.86 62.79 605.21 63.73 614.06 65.6C624.55 67.85 631.6 70.16 631.6 78.35C631.6 87.6 622.68 91.22 612.11 91.22C604.01 91.22 596.13 89.1 590.06 85.22C590.45 84.62 593.57 79.82 593.96 79.22C596.51 81.41 604.01 84.91 612.41 84.91C618.78 84.91 622.53 82.91 622.53 79.16C622.53 74.72 617.2 73.47 607.98 71.48C597.48 69.16 592.16 66.54 592.16 59.6C592.16 50.85 600.56 46.1 611.35 46.1C618.7 46.1 624.85 48.29 629.43 51.1C629.17 51.49 627.9 53.4 625.6 56.85C620.45 53.85 615.55 52.35 610.91 52.35Z" id="b9v7dxzUy"></path><path d="M305.54 123.89C305.34 124 303.72 124.87 303.52 124.98C302.33 122.85 299.97 122.14 297.92 122.14C293.43 122.14 291.01 125.53 291.01 128.7C291.01 132.21 293.99 135.36 298 135.36C300.11 135.36 302.61 134.48 303.78 132.4C303.99 132.5 305.69 133.27 305.91 133.37C304.63 135.88 301.02 137.28 297.89 137.28C292.34 137.28 288.42 132.87 288.42 128.61C288.42 124.53 291.95 120.22 298.03 120.22C301.62 120.22 304.29 121.73 305.54 123.89Z" id="aZKOfl1hm"></path><path d="M330.14 120.19C335.8 120.19 339.61 124.53 339.61 128.75C339.61 133.23 335.54 137.26 330.08 137.26C324.42 137.26 320.59 133.04 320.59 128.73C320.59 124.25 324.68 120.19 330.14 120.19ZM337.02 128.73C337.02 125.29 334.21 122.14 330.11 122.14C325.82 122.14 323.17 125.45 323.17 128.73C323.17 132.16 325.93 135.34 330.11 135.34C334.41 135.34 337.02 131.97 337.02 128.73Z" id="a36JhwF6wE"></path><path d="M358.69 137.14L356.13 137.14L356.13 120.31L358.12 120.31L370.64 133.42L370.64 120.33L373.2 120.33L373.2 137.14L371.03 137.14L358.69 124.29L358.69 137.14Z" id="b65ciZAlrO"></path><path d="M397.4 122.09C394.27 122.09 392.85 123.13 392.85 124.84C392.85 126.64 394.53 127.11 398.17 127.8C402.37 128.58 404.99 129.58 404.99 132.61C404.99 135.86 401.81 137.31 397.65 137.31C394.56 137.31 391.71 136.48 389.44 134.94C389.56 134.76 390.54 133.31 390.66 133.13C391.88 134.2 394.64 135.39 397.71 135.39C400.58 135.39 402.26 134.51 402.26 132.83C402.26 130.93 400.18 130.36 396.43 129.6C392.34 128.77 390.2 127.85 390.2 125.17C390.2 121.95 393.27 120.19 397.46 120.19C400.16 120.19 402.37 120.95 404.08 122.11C404 122.23 403.6 122.8 402.89 123.84C400.84 122.67 399.01 122.09 397.4 122.09Z" id="g27cevn9Cw"></path><path d="M435.68 120.31L438.23 120.31C438.23 125.42 438.23 128.25 438.23 128.82C438.23 133.37 435.85 137.26 429.65 137.26C423.22 137.26 421.03 133.13 421.03 128.82C421.03 128.25 421.03 125.42 421.03 120.31L423.59 120.31C423.59 125.42 423.59 128.25 423.59 128.82C423.59 132.14 425.01 135.34 429.62 135.34C434.31 135.34 435.68 132.04 435.68 128.82C435.68 127.69 435.68 124.85 435.68 120.31Z" id="euh01M9O5"></path><path d="M455.7 120.31L458.26 120.31L458.26 135.24L469.52 135.24L469.52 137.14L455.7 137.14L455.7 120.31Z" id="b272YDUzHO"></path><path d="M489.91 122.21L489.91 137.14L487.35 137.14L487.35 122.21L480.38 122.21L480.38 120.31L496.87 120.31L496.87 122.21L489.91 122.21Z" id="i1eukP9AyQ"></path><path d="M512.75 120.33L515.3 120.33L515.3 137.14L512.75 137.14L512.75 120.33Z" id="a4JlwFDdBA"></path><path d="M535.64 137.14L533.08 137.14L533.08 120.31L535.07 120.31L547.58 133.42L547.58 120.33L550.14 120.33L550.14 137.14L547.98 137.14L535.64 124.29L535.64 137.14Z" id="a250yjELrT"></path><path d="M576.08 137.26C570.73 137.26 566.67 133.01 566.67 128.68C566.67 124.15 570.68 120.19 576.08 120.19C579.97 120.19 582.48 121.68 583.79 123.86C583.59 123.98 582.02 124.89 581.82 125C580.63 123.06 578.5 122.11 576.02 122.11C571.9 122.11 569.25 125.31 569.25 128.73C569.25 132.33 572.3 135.34 576.28 135.34C578.44 135.34 580.43 134.48 582.22 132.68C582.22 132.53 582.22 131.75 582.22 130.36L577.87 130.36L577.87 128.75L584.38 128.75L584.38 137.14L582.22 137.14L582.22 134.86C579.68 136.46 577.63 137.26 576.08 137.26Z" id="a10RRxkdRp"></path><path d="M166.83 158.28C171.46 155.06 175.83 151.38 179.89 147.24C181.16 145.96 191.26 135.69 192.52 134.4C189.81 132.83 186.67 131.91 183.31 131.91C173.18 131.91 164.96 140.12 164.96 150.25C164.96 153.14 165.65 155.86 166.83 158.28Z" id="dEnaZre"></path><path d="M166.83 158.28C171.46 155.06 175.83 151.38 179.89 147.24C181.16 145.96 191.26 135.69 192.52 134.4C189.81 132.83 186.67 131.91 183.31 131.91C173.18 131.91 164.96 140.12 164.96 150.25C164.96 153.14 165.65 155.86 166.83 158.28Z" id="a23LPK1ErA"></path><path d="M176.46 167.27C178.58 168.12 180.88 168.6 183.31 168.6C193.44 168.6 201.65 160.39 201.65 150.25C201.65 145.47 199.81 141.14 196.82 137.87C196.19 138.89 193.04 143.97 187.38 153.12C182.84 159.64 179.2 164.36 176.46 167.27Z" id="b3WF7lBpu"></path><path d="M176.46 167.27C178.58 168.12 180.88 168.6 183.31 168.6C193.44 168.6 201.65 160.39 201.65 150.25C201.65 145.47 199.81 141.14 196.82 137.87C196.19 138.89 193.04 143.97 187.38 153.12C182.84 159.64 179.2 164.36 176.46 167.27Z" id="cL0RTFiD4"></path><path d="M129.1 178.24C119.14 179.75 109.05 179.79 99.27 178.42C94.37 177.75 89.56 176.71 84.89 175.3C80.22 173.93 75.69 172.2 71.4 170.09C71.19 169.98 70.14 169.43 68.24 168.44L65.17 166.66L62.33 164.85C62.34 164.86 62.34 164.86 62.34 164.86C62.75 165.13 61.89 164.57 62.01 164.65C62.03 164.66 62.09 164.7 62.2 164.77L62.33 164.85L62.24 164.78L61.84 164.49L61.05 163.89L59.46 162.69C57.55 161.25 56.49 160.45 56.28 160.3C55.41 159.52 54.73 158.78 53.94 158.04C53.78 157.89 53.02 157.16 51.64 155.85C50.88 154.97 50.46 154.47 50.37 154.37C51.36 153.15 52.35 151.93 53.34 150.71C55.18 148.46 56.97 146.18 58.76 143.9C62.38 139.36 65.87 134.73 69.41 130.14C72.86 125.49 76.39 120.89 79.76 116.19C83.17 111.52 86.57 106.83 89.88 102.09C93.24 97.38 96.52 92.62 99.78 87.84C99.93 87.62 100.09 87.39 100.24 87.17C102.31 90.62 104.45 94.03 106.55 97.46C107.8 99.49 109.11 101.47 110.39 103.48C111.69 105.48 112.94 107.5 114.27 109.47C114.67 110.07 117.84 114.82 118.24 115.42C119.54 117.41 120.94 119.35 122.29 121.31C123 122.35 123.74 123.38 124.46 124.41C127.31 124.64 130 124.31 132.34 123.78C124.96 128.13 115.04 131.74 103.27 132.35C97.58 132.64 91.78 132.23 86.08 130.07C96.55 139.32 117.89 141.04 132.75 135.88C132.75 135.88 132.75 135.88 132.75 135.88C133.67 135.68 141.31 132.45 144.55 130.18C151.69 125.19 158.38 119.01 162.69 111.36C168.65 100.98 171.4 88.92 171.04 76.94C170.62 64.96 167.23 52.87 160.62 42.39C159.8 41.08 158.89 39.82 158.02 38.54C157.09 37.3 156.12 36.09 155.15 34.87C154.84 34.52 152.34 31.74 152.02 31.4C150.84 30.24 149.59 29.04 148.4 27.96C148.3 27.87 147.79 27.44 146.87 26.68L146.11 26.04L145.73 25.72L145.54 25.56L145.05 25.18C142.85 23.57 141.63 22.68 141.38 22.5C140.12 21.65 138.84 20.85 137.56 20.02C136.27 19.22 134.92 18.51 133.6 17.75C122.87 11.93 110.68 8.75 98.45 8.25C86.2 7.72 73.92 10.06 62.6 14.65C51.26 19.26 40.94 26.39 32.48 35.37C31.39 36.47 30.41 37.66 29.4 38.83C28.38 39.99 27.45 41.22 26.52 42.46C25.57 43.68 24.72 44.97 23.87 46.26C23.44 46.92 23.01 47.52 22.59 48.23C22.46 48.44 21.45 50.16 21.32 50.37C20.92 51.07 20.46 51.85 20.12 52.49C20.06 52.6 19.75 53.19 19.21 54.26L18.15 56.34L17.26 58.42L15.5 62.57L14.64 64.66C14.22 65.94 13.99 66.65 13.94 66.8C9.97 78.14 8.26 90.13 8.43 102.02C8.6 113.93 10.98 125.78 15.29 136.91C19.36 147.33 25.41 157.04 33.07 165.31C33.59 165.86 34.1 166.44 34.63 166.98C34.82 167.17 35.74 168.09 37.42 169.76L37.83 170.17C40.05 171.99 41.28 173.01 41.53 173.21C42.76 174.19 44.03 175.26 45.23 176.14C45.56 176.35 48.24 178.08 48.57 178.3C53.58 181.77 58.9 184.25 64.35 186.4C69.81 188.51 75.4 190.09 81.04 191.21C86.69 192.29 92.39 192.91 98.07 193.09C103.76 193.3 109.43 192.98 115.02 192.29C120.61 191.59 126.14 190.48 131.51 188.86C142.25 185.71 152.41 180.79 161.3 174.31C170.19 167.83 177.7 159.66 183.31 150.6C175.81 158.23 167.3 164.46 158.09 169.08C148.86 173.67 139.05 176.68 129.1 178.24ZM43.63 144.33C43.52 144.56 43.4 144.78 43.28 145.01C40.2 140.12 37.72 134.82 35.84 129.32C32.8 120.55 31.47 111.19 31.51 101.89C31.56 92.57 33.29 83.31 36.33 74.63C36.37 74.52 36.55 73.97 36.87 72.98L37.56 71.4L38.93 68.24L39.6 66.66L40.37 65.2C40.92 64.14 41.23 63.56 41.29 63.44C41.58 62.91 41.82 62.57 42.09 62.12C42.59 61.27 43.09 60.42 43.76 59.48C44.38 58.57 44.99 57.64 45.69 56.78C47 55 48.42 53.28 49.93 51.66C55.95 45.12 63.48 39.94 71.71 36.34C79.94 32.71 88.95 30.9 97.92 30.87C106.91 30.84 115.83 32.88 124.03 36.65C125.04 37.16 126.08 37.61 127.07 38.16C127.27 38.27 128.26 38.83 130.03 39.84L132.91 41.7C132.96 41.73 132.99 41.75 133 41.75C132.47 41.35 132.91 41.69 132.82 41.61C132.83 41.62 132.9 41.67 133.02 41.76L133.42 42.06L134.21 42.66C135.17 43.37 135.7 43.77 135.81 43.85C136.6 44.52 137.3 45.12 138.08 45.75C138.24 45.9 139.03 46.65 140.46 48.02C141.79 49.48 142.53 50.3 142.68 50.46C143.36 51.34 144.09 52.17 144.74 53.07C149.97 60.22 153.46 68.94 154.6 78.12C155.85 87.29 154.63 96.86 151.07 105.46C150.48 106.87 149.78 108.17 149.01 109.39C149.01 109.38 149.02 109.37 149.03 109.37C149.03 109.37 149.01 109.39 149.01 109.39C148.36 110.4 147.66 111.35 146.92 112.24C146.92 112.24 146.92 112.23 146.92 112.23C146.92 112.23 146.89 112.27 146.84 112.33C145.54 113.87 144.1 115.22 142.6 116.41C141.71 117.19 140.67 118.04 139.52 118.92C139.29 118.43 137.43 114.53 137.2 114.04C137.03 113.68 136.86 113.31 136.69 112.95C135.65 110.8 134.65 108.63 133.57 106.51C133.25 105.87 130.69 100.76 130.37 100.12C129.32 97.98 128.19 95.89 127.1 93.77C125.99 91.67 124.91 89.55 123.77 87.46C121.47 83.29 119.27 79.07 116.89 74.96C114.53 70.83 112.22 66.67 109.77 62.6C109.19 61.65 106.31 56.88 101.14 48.31L92.2 62.12C89.38 66.48 87.81 68.91 87.49 69.4C85.91 71.81 84.4 74.28 82.85 76.73C79.77 81.62 76.7 86.52 73.72 91.47C70.68 96.4 67.73 101.38 64.8 106.36C61.83 111.33 59.01 116.39 56.12 121.41C53.31 126.48 50.45 131.52 47.73 136.65C46.35 139.2 44.97 141.75 43.63 144.33Z" id="d8UdmBGosj"></path></defs><g><g><g><use xlink:href="#c1s6YdAAaj" opacity="1" fill="#ffffff" fill-opacity="1"></use><g><use xlink:href="#c1s6YdAAaj" opacity="1" fill-opacity="0" stroke="#ffffff" stroke-width="1" stroke-opacity="1"></use></g></g><g><use xlink:href="#b9hQWdrx1" opacity="1" fill="#ffffff" fill-opacity="1"></use><g><use xlink:href="#b9hQWdrx1" opacity="1" fill-opacity="0" stroke="#ffffff" stroke-width="1" stroke-opacity="1"></use></g></g><g><use xlink:href="#g9rvDmybJ" opacity="1" fill="#ffffff" fill-opacity="1"></use><g><use xlink:href="#g9rvDmybJ" opacity="1" fill-opacity="0" stroke="#ffffff" stroke-width="1" stroke-opacity="1"></use></g></g><g><use xlink:href="#aIpu1SR09" opacity="1" fill="#ffffff" fill-opacity="1"></use><g><use xlink:href="#aIpu1SR09" opacity="1" fill-opacity="0" stroke="#ffffff" stroke-width="1" stroke-opacity="1"></use></g></g><g><use xlink:href="#dJI42LxBS" opacity="1" fill="#ffffff" fill-opacity="1"></use><g><use xlink:href="#dJI42LxBS" opacity="1" fill-opacity="0" stroke="#ffffff" stroke-width="1" stroke-opacity="1"></use></g></g><g><use xlink:href="#fWYhnPuuq" opacity="1" fill="#ffffff" fill-opacity="1"></use><g><use xlink:href="#fWYhnPuuq" opacity="1" fill-opacity="0" stroke="#ffffff" stroke-width="1" stroke-opacity="1"></use></g></g><g><use xlink:href="#a7tIQi8YSN" opacity="1" fill="#ffffff" fill-opacity="1"></use><g><use xlink:href="#a7tIQi8YSN" opacity="1" fill-opacity="0" stroke="#ffffff" stroke-width="1" stroke-opacity="1"></use></g></g><g><use xlink:href="#b9v7dxzUy" opacity="1" fill="#ffffff" fill-opacity="1"></use><g><use xlink:href="#b9v7dxzUy" opacity="1" fill-opacity="0" stroke="#ffffff" stroke-width="1" stroke-opacity="1"></use></g></g><g><use xlink:href="#aZKOfl1hm" opacity="1" fill="#ffffff" fill-opacity="1"></use><g><use xlink:href="#aZKOfl1hm" opacity="1" fill-opacity="0" stroke="#ffffff" stroke-width="1" stroke-opacity="1"></use></g></g><g><use xlink:href="#a36JhwF6wE" opacity="1" fill="#ffffff" fill-opacity="1"></use><g><use xlink:href="#a36JhwF6wE" opacity="1" fill-opacity="0" stroke="#ffffff" stroke-width="1" stroke-opacity="1"></use></g></g><g><use xlink:href="#b65ciZAlrO" opacity="1" fill="#ffffff" fill-opacity="1"></use><g><use xlink:href="#b65ciZAlrO" opacity="1" fill-opacity="0" stroke="#ffffff" stroke-width="1" stroke-opacity="1"></use></g></g><g><use xlink:href="#g27cevn9Cw" opacity="1" fill="#ffffff" fill-opacity="1"></use><g><use xlink:href="#g27cevn9Cw" opacity="1" fill-opacity="0" stroke="#ffffff" stroke-width="1" stroke-opacity="1"></use></g></g><g><use xlink:href="#euh01M9O5" opacity="1" fill="#ffffff" fill-opacity="1"></use><g><use xlink:href="#euh01M9O5" opacity="1" fill-opacity="0" stroke="#ffffff" stroke-width="1" stroke-opacity="1"></use></g></g><g><use xlink:href="#b272YDUzHO" opacity="1" fill="#ffffff" fill-opacity="1"></use><g><use xlink:href="#b272YDUzHO" opacity="1" fill-opacity="0" stroke="#ffffff" stroke-width="1" stroke-opacity="1"></use></g></g><g><use xlink:href="#i1eukP9AyQ" opacity="1" fill="#ffffff" fill-opacity="1"></use><g><use xlink:href="#i1eukP9AyQ" opacity="1" fill-opacity="0" stroke="#ffffff" stroke-width="1" stroke-opacity="1"></use></g></g><g><use xlink:href="#a4JlwFDdBA" opacity="1" fill="#ffffff" fill-opacity="1"></use><g><use xlink:href="#a4JlwFDdBA" opacity="1" fill-opacity="0" stroke="#ffffff" stroke-width="1" stroke-opacity="1"></use></g></g><g><use xlink:href="#a250yjELrT" opacity="1" fill="#ffffff" fill-opacity="1"></use><g><use xlink:href="#a250yjELrT" opacity="1" fill-opacity="0" stroke="#ffffff" stroke-width="1" stroke-opacity="1"></use></g></g><g><use xlink:href="#a10RRxkdRp" opacity="1" fill="#ffffff" fill-opacity="1"></use><g><use xlink:href="#a10RRxkdRp" opacity="1" fill-opacity="0" stroke="#ffffff" stroke-width="1" stroke-opacity="1"></use></g></g><g><use xlink:href="#dEnaZre" opacity="1" fill="#94c940" fill-opacity="1"></use><g><use xlink:href="#dEnaZre" opacity="1" fill-opacity="0" stroke="#000000" stroke-width="1" stroke-opacity="0"></use></g></g><g><use xlink:href="#a23LPK1ErA" opacity="1" fill="#000000" fill-opacity="0"></use><g><use xlink:href="#a23LPK1ErA" opacity="1" fill-opacity="0" stroke="#ffffff" stroke-width="0" stroke-opacity="1"></use></g></g><g><use xlink:href="#b3WF7lBpu" opacity="1" fill="#94c940" fill-opacity="1"></use><g><use xlink:href="#b3WF7lBpu" opacity="1" fill-opacity="0" stroke="#000000" stroke-width="1" stroke-opacity="0"></use></g></g><g><use xlink:href="#cL0RTFiD4" opacity="1" fill="#f66c6c" fill-opacity="0"></use><g><use xlink:href="#cL0RTFiD4" opacity="1" fill-opacity="0" stroke="#ffffff" stroke-width="0" stroke-opacity="1"></use></g></g><g><use xlink:href="#d8UdmBGosj" opacity="1" fill="#ffffff" fill-opacity="1"></use><g><use xlink:href="#d8UdmBGosj" opacity="1" fill-opacity="0" stroke="#ffffff" stroke-width="1" stroke-opacity="1"></use></g></g></g></g></svg>